<mxfile host="app.diagrams.net" agent="Mozilla/5.0 (Windows NT 10.0; Win64; x64) AppleWebKit/537.36 (KHTML, like Gecko) Chrome/135.0.0.0 Safari/537.36" version="26.2.9">
  <diagram name="Страница — 1" id="BxRRARAz4fFX2S6HF_RD">
    <mxGraphModel grid="1" page="1" gridSize="10" guides="1" tooltips="1" connect="1" arrows="1" fold="1" pageScale="1" pageWidth="827" pageHeight="1169" math="0" shadow="0">
      <root>
        <mxCell id="0" />
        <mxCell id="1" parent="0" />
        <mxCell id="KhFvEH--002ZxDaHv0VD-12" value="Авторизований користувач" style="shape=umlActor;verticalLabelPosition=bottom;verticalAlign=top;html=1;outlineConnect=0;" vertex="1" parent="1">
          <mxGeometry x="115" y="20" width="30" height="60" as="geometry" />
        </mxCell>
        <mxCell id="KhFvEH--002ZxDaHv0VD-13" value="Додавання водного ресурсу" style="ellipse;whiteSpace=wrap;html=1;" vertex="1" parent="1">
          <mxGeometry x="70" y="150" width="120" height="80" as="geometry" />
        </mxCell>
        <mxCell id="KhFvEH--002ZxDaHv0VD-14" value="" style="endArrow=classic;html=1;rounded=0;entryX=0.5;entryY=0;entryDx=0;entryDy=0;" edge="1" parent="1" target="KhFvEH--002ZxDaHv0VD-13">
          <mxGeometry width="50" height="50" relative="1" as="geometry">
            <mxPoint x="130" y="110" as="sourcePoint" />
            <mxPoint x="205" y="80" as="targetPoint" />
          </mxGeometry>
        </mxCell>
        <mxCell id="KhFvEH--002ZxDaHv0VD-15" value="include" style="edgeStyle=orthogonalEdgeStyle;rounded=0;orthogonalLoop=1;jettySize=auto;html=1;exitX=0.5;exitY=1;exitDx=0;exitDy=0;entryX=0.5;entryY=0;entryDx=0;entryDy=0;" edge="1" parent="1" source="KhFvEH--002ZxDaHv0VD-16" target="KhFvEH--002ZxDaHv0VD-18">
          <mxGeometry relative="1" as="geometry" />
        </mxCell>
        <mxCell id="KhFvEH--002ZxDaHv0VD-16" value="&lt;div&gt;Введення даних&lt;/div&gt;" style="ellipse;whiteSpace=wrap;html=1;" vertex="1" parent="1">
          <mxGeometry x="70" y="290" width="120" height="80" as="geometry" />
        </mxCell>
        <mxCell id="KhFvEH--002ZxDaHv0VD-17" value="include" style="endArrow=classic;html=1;rounded=0;entryX=0.5;entryY=0;entryDx=0;entryDy=0;" edge="1" parent="1" source="KhFvEH--002ZxDaHv0VD-13" target="KhFvEH--002ZxDaHv0VD-16">
          <mxGeometry width="50" height="50" relative="1" as="geometry">
            <mxPoint x="215" y="280" as="sourcePoint" />
            <mxPoint x="275" y="260" as="targetPoint" />
          </mxGeometry>
        </mxCell>
        <mxCell id="KhFvEH--002ZxDaHv0VD-18" value="Надсилання заявки" style="ellipse;whiteSpace=wrap;html=1;" vertex="1" parent="1">
          <mxGeometry x="70" y="410" width="120" height="80" as="geometry" />
        </mxCell>
        <mxCell id="KhFvEH--002ZxDaHv0VD-23" value="Авторизація" style="ellipse;whiteSpace=wrap;html=1;" vertex="1" parent="1">
          <mxGeometry x="320" y="80" width="120" height="80" as="geometry" />
        </mxCell>
        <mxCell id="KhFvEH--002ZxDaHv0VD-24" value="" style="endArrow=classic;html=1;rounded=0;" edge="1" parent="1" target="KhFvEH--002ZxDaHv0VD-23">
          <mxGeometry width="50" height="50" relative="1" as="geometry">
            <mxPoint x="210" y="110" as="sourcePoint" />
            <mxPoint x="130" y="240" as="targetPoint" />
          </mxGeometry>
        </mxCell>
        <mxCell id="KhFvEH--002ZxDaHv0VD-25" value="extend" style="endArrow=classic;html=1;rounded=0;entryX=0.225;entryY=0.038;entryDx=0;entryDy=0;entryPerimeter=0;" edge="1" parent="1" source="KhFvEH--002ZxDaHv0VD-23" target="KhFvEH--002ZxDaHv0VD-26">
          <mxGeometry width="50" height="50" relative="1" as="geometry">
            <mxPoint x="380" y="250" as="sourcePoint" />
            <mxPoint x="460" y="150" as="targetPoint" />
          </mxGeometry>
        </mxCell>
        <mxCell id="KhFvEH--002ZxDaHv0VD-26" value="Помилка авторизації" style="ellipse;whiteSpace=wrap;html=1;" vertex="1" parent="1">
          <mxGeometry x="510" y="140" width="120" height="80" as="geometry" />
        </mxCell>
        <mxCell id="KhFvEH--002ZxDaHv0VD-27" value="Адміністратор" style="shape=umlActor;verticalLabelPosition=bottom;verticalAlign=top;html=1;outlineConnect=0;" vertex="1" parent="1">
          <mxGeometry x="310" y="450" width="30" height="60" as="geometry" />
        </mxCell>
        <mxCell id="KhFvEH--002ZxDaHv0VD-28" value="Карта" style="ellipse;whiteSpace=wrap;html=1;" vertex="1" parent="1">
          <mxGeometry x="210" y="150" width="120" height="80" as="geometry" />
        </mxCell>
        <mxCell id="KhFvEH--002ZxDaHv0VD-29" value="" style="endArrow=classic;html=1;rounded=0;" edge="1" parent="1" target="KhFvEH--002ZxDaHv0VD-28">
          <mxGeometry width="50" height="50" relative="1" as="geometry">
            <mxPoint x="190" y="120" as="sourcePoint" />
            <mxPoint x="200" y="160" as="targetPoint" />
          </mxGeometry>
        </mxCell>
        <mxCell id="KhFvEH--002ZxDaHv0VD-30" value="include" style="endArrow=classic;html=1;rounded=0;" edge="1" parent="1">
          <mxGeometry width="50" height="50" relative="1" as="geometry">
            <mxPoint x="200" y="450" as="sourcePoint" />
            <mxPoint x="290" y="470" as="targetPoint" />
          </mxGeometry>
        </mxCell>
        <mxCell id="KhFvEH--002ZxDaHv0VD-31" value="include" style="endArrow=classic;html=1;rounded=0;" edge="1" parent="1">
          <mxGeometry width="50" height="50" relative="1" as="geometry">
            <mxPoint x="310" y="450" as="sourcePoint" />
            <mxPoint x="300" y="360" as="targetPoint" />
          </mxGeometry>
        </mxCell>
        <mxCell id="KhFvEH--002ZxDaHv0VD-34" value="Погодження даних" style="ellipse;whiteSpace=wrap;html=1;" vertex="1" parent="1">
          <mxGeometry x="230" y="280" width="120" height="70" as="geometry" />
        </mxCell>
        <mxCell id="KhFvEH--002ZxDaHv0VD-35" value="include" style="endArrow=classic;html=1;rounded=0;entryX=0.5;entryY=1;entryDx=0;entryDy=0;" edge="1" parent="1" target="KhFvEH--002ZxDaHv0VD-28">
          <mxGeometry width="50" height="50" relative="1" as="geometry">
            <mxPoint x="280" y="280" as="sourcePoint" />
            <mxPoint x="330" y="230" as="targetPoint" />
          </mxGeometry>
        </mxCell>
        <mxCell id="KhFvEH--002ZxDaHv0VD-37" value="extend" style="endArrow=classic;html=1;rounded=0;" edge="1" parent="1">
          <mxGeometry width="50" height="50" relative="1" as="geometry">
            <mxPoint x="340" y="350" as="sourcePoint" />
            <mxPoint x="430" y="390" as="targetPoint" />
            <mxPoint as="offset" />
          </mxGeometry>
        </mxCell>
        <mxCell id="KhFvEH--002ZxDaHv0VD-38" value="Відхилення через невідповідність даних" style="ellipse;whiteSpace=wrap;html=1;" vertex="1" parent="1">
          <mxGeometry x="440" y="370" width="120" height="80" as="geometry" />
        </mxCell>
        <mxCell id="KhFvEH--002ZxDaHv0VD-40" value="extend" style="endArrow=classic;html=1;rounded=0;" edge="1" parent="1">
          <mxGeometry width="50" height="50" relative="1" as="geometry">
            <mxPoint x="160" y="489.5" as="sourcePoint" />
            <mxPoint x="230" y="550" as="targetPoint" />
          </mxGeometry>
        </mxCell>
        <mxCell id="KhFvEH--002ZxDaHv0VD-41" value="extend" style="endArrow=classic;html=1;rounded=0;" edge="1" parent="1">
          <mxGeometry width="50" height="50" relative="1" as="geometry">
            <mxPoint x="100" y="490" as="sourcePoint" />
            <mxPoint x="60" y="560" as="targetPoint" />
          </mxGeometry>
        </mxCell>
        <mxCell id="KhFvEH--002ZxDaHv0VD-42" value="&lt;font face=&quot;Helvetica&quot;&gt;&lt;span id=&quot;docs-internal-guid-81888189-7fff-0865-a665-e7b756911eb8&quot; style=&quot;&quot;&gt;&lt;span style=&quot;color: rgb(0, 0, 0); background-color: transparent; font-style: normal; font-variant: normal; text-decoration: none; vertical-align: baseline; white-space: pre-wrap;&quot;&gt;Ввід &lt;/span&gt;&lt;span style=&quot;color: rgb(0, 0, 0); background-color: transparent; font-style: normal; font-variant: normal; text-decoration: none; vertical-align: baseline; white-space: pre-wrap;&quot;&gt;неповних &lt;/span&gt;&lt;span style=&quot;color: rgb(0, 0, 0); background-color: transparent; font-style: normal; font-variant: normal; text-decoration: none; vertical-align: baseline; white-space: pre-wrap;&quot;&gt;даних&lt;/span&gt;&lt;span style=&quot;color: rgb(0, 0, 0); background-color: transparent; font-style: normal; font-variant: normal; text-decoration: none; vertical-align: baseline; white-space: pre-wrap;&quot;&gt; &lt;/span&gt;&lt;/span&gt;&lt;/font&gt;" style="ellipse;whiteSpace=wrap;html=1;" vertex="1" parent="1">
          <mxGeometry x="10" y="560" width="120" height="80" as="geometry" />
        </mxCell>
        <mxCell id="KhFvEH--002ZxDaHv0VD-43" value="&lt;span style=&quot;white-space-collapse: preserve;&quot;&gt;Некоректні дані&lt;/span&gt;" style="ellipse;whiteSpace=wrap;html=1;" vertex="1" parent="1">
          <mxGeometry x="170" y="550" width="120" height="80" as="geometry" />
        </mxCell>
        <mxCell id="KhFvEH--002ZxDaHv0VD-44" value="extend" style="endArrow=classic;html=1;rounded=0;" edge="1" parent="1">
          <mxGeometry width="50" height="50" relative="1" as="geometry">
            <mxPoint x="350" y="314.5" as="sourcePoint" />
            <mxPoint x="430" y="314.5" as="targetPoint" />
            <mxPoint as="offset" />
          </mxGeometry>
        </mxCell>
        <mxCell id="KhFvEH--002ZxDaHv0VD-45" value="Збій при збереженні" style="ellipse;whiteSpace=wrap;html=1;" vertex="1" parent="1">
          <mxGeometry x="430" y="270" width="120" height="80" as="geometry" />
        </mxCell>
      </root>
    </mxGraphModel>
  </diagram>
</mxfile>
